<svg xmlns="http://www.w3.org/2000/svg" viewBox="0 0 100 100">
  <defs>
    <linearGradient id="grad1" x1="0%" y1="0%" x2="100%" y2="100%">
      <stop offset="0%" style="stop-color:#4F46E5;stop-opacity:1" />
      <stop offset="100%" style="stop-color:#7C3AED;stop-opacity:1" />
    </linearGradient>
  </defs>
  
  <!-- Calendar background -->
  <rect x="15" y="20" width="70" height="65" rx="8" fill="url(#grad1)"/>
  
  <!-- Calendar top bar -->
  <rect x="15" y="20" width="70" height="15" rx="8" fill="#312E81"/>
  <rect x="15" y="27" width="70" height="8" fill="#312E81"/>
  
  <!-- Calendar grid (4x4 weeks) -->
  <rect x="22" y="42" width="8" height="8" rx="1" fill="white" opacity="0.9"/>
  <rect x="35" y="42" width="8" height="8" rx="1" fill="white" opacity="0.9"/>
  <rect x="48" y="42" width="8" height="8" rx="1" fill="white" opacity="0.9"/>
  <rect x="61" y="42" width="8" height="8" rx="1" fill="white" opacity="0.9"/>
  
  <rect x="22" y="54" width="8" height="8" rx="1" fill="white" opacity="0.9"/>
  <rect x="35" y="54" width="8" height="8" rx="1" fill="white" opacity="0.9"/>
  <rect x="48" y="54" width="8" height="8" rx="1" fill="#10B981"/>
  <rect x="61" y="54" width="8" height="8" rx="1" fill="white" opacity="0.9"/>
  
  <rect x="22" y="66" width="8" height="8" rx="1" fill="white" opacity="0.5"/>
  <rect x="35" y="66" width="8" height="8" rx="1" fill="white" opacity="0.5"/>
  <rect x="48" y="66" width="8" height="8" rx="1" fill="white" opacity="0.5"/>
  <rect x="61" y="66" width="8" height="8" rx="1" fill="white" opacity="0.5"/>
</svg>
